<?xml version="1.0" encoding="utf-8"?>
<!-- Generator: Adobe Illustrator 23.1.0, SVG Export Plug-In . SVG Version: 6.00 Build 0)  -->
<svg version="1.1" id="Layer_1" xmlns="http://www.w3.org/2000/svg" xmlns:xlink="http://www.w3.org/1999/xlink" x="0px" y="0px"
	 viewBox="0 0 200 1080" style="enable-background:new 0 0 200 1080;" xml:space="preserve">
<path fill="#fff" d="M45.7,17.7c15.7,1.6,33.8,2.8,54.2,3.6c20.4,0.8,38.4,1.2,53.8,1.2c-0.1,6.3-0.2,11.6-0.2,15.9
	c0,4.6,0.1,9.1,0.2,13.5c0.2,4.4,0.2,9.1,0.2,14c0,6.1-0.3,11.6-1,16.4c-0.7,4.8-2.3,9.1-4.7,12.9c-2.5,3.7-5.5,6.5-9,8.3
	c-3.5,1.8-7.7,2.7-12.3,2.7c-3,0-5.8-0.3-8.4-1c-2.7-0.7-5.2-1.7-7.5-3c-2.3-1.3-4.4-2.9-6.2-4.8c-1.8-1.8-3.2-3.7-4.2-5.5
	s-1.9-3.9-2.7-6.2c-0.7-2.3-1.6-5.4-2.7-9.3l-10.4,5.4c-3.3,1.7-9.3,5-17.9,9.9l-14,8c-0.7,0.4-3.1,1.7-7.2,3.8
	c0.1-6.5,0.2-10.7,0.2-12.8c0-2.5-0.1-7-0.2-13.4l21.1-8.8c3.2-1.5,7-3.4,11.4-5.5l19.2-9.6c1.8-0.9,4.5-2.3,8.1-4
	c-0.6,3.5-0.9,6.8-0.9,9.7c0,4.5,0.7,8.7,2.2,12.4c1.5,3.7,3.8,6.6,6.8,8.6c3.1,2,6.5,3,10.1,3c2.2,0,4.3-0.4,6.2-1.3
	c1.9-0.9,3.5-2.3,4.8-4.4c1.3-2.1,2.2-4.5,2.5-7.4c0.4-2.8,0.6-5.7,0.6-8.5c0-1.6,0-3.7-0.1-6.5c-0.1-2.7-0.1-6.1-0.1-10.1
	l-32.5-1.4l-59.4-1.5l0.2-12.3C45.9,27.7,45.8,23.7,45.7,17.7z"/>
<path fill="#fff" d="M45.7,254c15.7,1.6,33.8,2.8,54.2,3.6c20.4,0.8,38.4,1.2,53.8,1.2c-0.1,6.3-0.2,11.6-0.2,15.9
	c0,4.6,0.1,9.1,0.2,13.5c0.2,4.4,0.2,9.1,0.2,14c0,6.1-0.3,11.6-1,16.4c-0.7,4.8-2.3,9.1-4.7,12.9c-2.5,3.7-5.5,6.5-9,8.3
	c-3.5,1.8-7.7,2.7-12.3,2.7c-3,0-5.8-0.3-8.4-1c-2.7-0.7-5.2-1.7-7.5-3c-2.3-1.3-4.4-2.9-6.2-4.8c-1.8-1.8-3.2-3.7-4.2-5.5
	c-1-1.8-1.9-3.9-2.7-6.2c-0.7-2.3-1.6-5.4-2.7-9.3L84.8,318c-3.3,1.7-9.3,5-17.9,9.9l-14,8c-0.7,0.4-3.1,1.7-7.2,3.8
	c0.1-6.5,0.2-10.7,0.2-12.8c0-2.5-0.1-7-0.2-13.4l21.1-8.8c3.2-1.5,7-3.4,11.4-5.5l19.2-9.6c1.8-0.9,4.5-2.3,8.1-4
	c-0.6,3.5-0.9,6.8-0.9,9.7c0,4.5,0.7,8.7,2.2,12.4c1.5,3.8,3.8,6.6,6.8,8.6c3.1,2,6.5,3,10.1,3c2.2,0,4.3-0.4,6.2-1.3
	c1.9-0.9,3.5-2.3,4.8-4.4c1.3-2.1,2.2-4.5,2.5-7.4c0.4-2.8,0.6-5.7,0.6-8.5c0-1.6,0-3.7-0.1-6.5c-0.1-2.7-0.1-6.1-0.1-10.1
	l-32.5-1.4l-59.4-1.5l0.2-12.3C45.9,264,45.8,260,45.7,254z"/>
<path fill="#fff" d="M45.7,356.5l27.5,2.1l34.4,1.6l34.3,1c1.5,0.1,5.4,0.1,11.8,0.1c-0.1,5.9-0.2,11.4-0.2,16.5
	c0,3.9,0.1,8.9,0.2,15.2c0.2,6.3,0.2,11.8,0.2,16.3c0,6.2-0.4,12-1.1,17.3c-0.7,5.3-2.1,9.9-4.2,13.9c-2,4-4.6,7.4-7.6,10.3
	c-3.1,2.9-6.5,5.3-10.2,7.1c-3.7,1.8-7.9,3.3-12.4,4.2c-4.6,1-9.2,1.5-14,1.5c-9.1,0-17.7-1.6-25.9-4.7c-8.2-3.1-15-7.8-20.3-14
	c-5.4-6.2-8.8-13.1-10.3-20.7c-1.5-7.6-2.3-16.2-2.3-25.8l0.2-26.9C45.9,369.9,45.8,364.9,45.7,356.5z M62.6,380.8
	c-0.2,4.3-0.3,8.6-0.3,12.8c0,4.8,0.2,9.2,0.7,13.3c0.5,4.1,1.2,7.6,2.3,10.6c1,3,2.8,5.9,5.4,8.9c2.6,3,5.6,5.4,9,7.3
	c3.4,1.9,7.2,3.4,11.4,4.4c4.2,1,8.4,1.5,12.7,1.5c7.9,0,14.4-1.3,19.5-4c5.1-2.7,8.8-6.2,11-10.6c2.2-4.4,3.4-11.2,3.4-20.4
	c0-6-0.1-12.8-0.3-20.5L62.6,380.8z"/>
<path fill="#fff" d="M45.7,464.5c9.7,5.5,21.7,11.9,36,19.3l40,20.8c12.3,6.5,23,11.9,32.1,16.2c-0.1,6.9-0.2,11.7-0.2,14.6
	c0,5,0.1,9.9,0.2,14.7l-32.4,11.3l-67,24.6l-8.7,3.4l0.2-11.9c0-2.7-0.1-7.4-0.2-13.8c4.7-1.3,11-3.3,19-6c8-2.7,14.4-5,19.4-6.9
	v-41.6c-12.6-6.2-25.4-12.2-38.4-18l0.2-12.9C45.9,475.7,45.8,471.2,45.7,464.5z M100.6,516.1v30.3l36.6-12.5l-13.3-6.4L100.6,516.1
	z"/>
<path fill="#fff" d="M45.7,600.3c15.9,1.6,33.6,2.8,53.1,3.8c19.5,0.9,37.8,1.5,55,1.7c-0.1,5.4-0.2,9.9-0.2,13.5
	c0,2.4,0.1,6.3,0.2,11.6c-9.5-0.7-20.3-1.3-32.5-1.9l-31.7-1.6c-9.1-0.5-18.1-0.8-27.1-1l-0.2,13.6c0,12.8,0,21.2,0.1,25.2
	c0.1,4,0.2,8,0.4,11.9c-5.2-0.5-10.9-0.9-17.2-1.3c0.1-13.9,0.2-25.8,0.2-35.6l-0.1-24.9L45.7,600.3z"/>
<path fill="#fff" d="M45.7,728.3c15.7,1.6,33.8,2.8,54.2,3.6c20.4,0.8,38.4,1.2,53.8,1.2c-0.1,6.3-0.2,11.6-0.2,15.9
	c0,4.6,0.1,9.1,0.2,13.5c0.2,4.4,0.2,9.1,0.2,14c0,6.1-0.3,11.6-1,16.4c-0.7,4.8-2.3,9.1-4.7,12.9c-2.5,3.7-5.5,6.5-9,8.3
	c-3.5,1.8-7.7,2.7-12.3,2.7c-3,0-5.8-0.3-8.4-1c-2.7-0.7-5.2-1.7-7.5-3c-2.3-1.3-4.4-2.9-6.2-4.8c-1.8-1.8-3.2-3.7-4.2-5.5
	c-1-1.8-1.9-3.9-2.7-6.2c-0.7-2.3-1.6-5.4-2.7-9.3l-10.4,5.4c-3.3,1.7-9.3,5-17.9,9.9l-14,8c-0.7,0.4-3.1,1.7-7.2,3.8
	c0.1-6.5,0.2-10.7,0.2-12.8c0-2.5-0.1-7-0.2-13.4l21.1-8.8c3.2-1.5,7-3.4,11.4-5.5l19.2-9.6c1.8-0.9,4.5-2.3,8.1-4
	c-0.6,3.5-0.9,6.8-0.9,9.7c0,4.5,0.7,8.7,2.2,12.4c1.5,3.8,3.8,6.6,6.8,8.6c3.1,2,6.5,3,10.1,3c2.2,0,4.3-0.4,6.2-1.3
	c1.9-0.9,3.5-2.3,4.8-4.4c1.3-2.1,2.2-4.5,2.5-7.4c0.4-2.8,0.6-5.7,0.6-8.5c0-1.6,0-3.7-0.1-6.5c-0.1-2.7-0.1-6.1-0.1-10.1
	l-32.5-1.4l-59.4-1.5l0.2-12.3C45.9,738.3,45.8,734.3,45.7,728.3z"/>
<path fill="#fff" d="M153.7,835.1c-0.1,6.1-0.2,10.2-0.2,12.4c0,2.7,0.1,6.7,0.2,12l-63.9-3.7c-0.7-0.1-1.5-0.1-2.4-0.1
	c-7.1,0-12.5,1-16.1,3c-3.6,2-6.2,5-7.8,8.9c-1.6,3.9-2.5,8.4-2.5,13.5c0,3.2,0.4,6.3,1.1,9.2c0.6,2.4,1.5,4.5,2.6,6.5
	c0.9,1.6,2.1,3,3.3,4.2c1.5,1.4,3.3,2.6,5.3,3.6c2,1,4.2,1.7,6.6,2.2c3.7,0.7,10.3,1.3,19.5,1.9l27.5,1.7c8,0.4,16.9,0.7,26.5,0.9
	c-0.1,6-0.2,10.4-0.2,13.3l0.2,11.5l-38.1-2.4l-30.3-1.6c-7.1-0.5-12.3-1.2-15.8-2.2c-2.9-0.8-5.6-2-8.1-3.6
	c-2.2-1.5-4.2-3.2-5.9-5.3c-2.3-2.6-4.2-5.7-5.9-9.3c-1.8-4-3.2-8.2-4-12.6c-1.2-6.1-1.7-12.4-1.7-18.9c0-6.6,0.6-12.9,1.8-18.7
	c1.1-5,2.7-9.5,4.9-13.7c2.2-4.1,4.7-7.4,7.4-9.9c2.2-2,5-3.5,8.3-4.7c3.7-1.3,7.8-2,12.3-2c1.6,0,3.6,0.1,6.1,0.2
	c2.5,0.1,5.7,0.3,9.7,0.6l11.2,0.7c3.5,0.3,8.6,0.6,15.4,0.9l17.2,0.8C142.8,834.7,148,834.9,153.7,835.1z"/>
<path fill="#fff" d="M45.7,952.4c9.4,1,20.1,1.8,31.8,2.3l38.8,1.8c14,0.6,26.5,0.9,37.4,0.9c-0.1,6.1-0.2,11.3-0.2,15.6
	c0,3.2,0.1,7.8,0.2,13.8c-10.4,6-24,14.2-40.7,24.7c-16.7,10.5-30.6,19-41.6,25.4l73.4,2.9c1.7,0.1,4.7,0.1,8.8,0.1
	c-0.1,5-0.2,8.7-0.2,11.3c0,1,0.1,4.7,0.2,11.1l-29-2l-49.7-2.4l-29.3-0.9c0.1-5.5,0.2-10.2,0.2-14c0-3.1-0.1-8-0.2-14.9
	c4.7-2.6,8.2-4.6,10.4-6c3.5-2.2,10.7-6.8,21.5-13.9c7.2-4.6,16.4-10.5,27.5-17.4c8.2-5.1,15.4-9.5,21.5-13.1
	c-8.5-0.4-24.4-1.1-47.6-2c-9.4-0.4-20.6-0.7-33.5-0.9c0.1-5,0.2-8.6,0.2-10.8C45.9,962.3,45.8,958.4,45.7,952.4z"/>
<path fill="#fff" d="M164.8,210.9l-13.3-8.6c0.4-1.8,1-4,1.7-6.5c0.7-2.5,1.2-4.5,1.4-6c0.3-1.6,0.5-3.4,0.7-5.5
	c0.2-2.1,0.3-4.2,0.3-6.3c0-10.7-2.3-20.9-6.9-30.6c-4.6-9.8-11.5-17.2-20.8-22.3c-9.3-5.1-19.2-7.6-29.9-7.6
	c-8.7,0-16.9,1.6-24.7,4.9c-7.8,3.2-14.1,8.5-19,15.7l-19.1-12.4c0.1,3.7,0.2,7,0.2,9.8c0,2.7-0.1,6-0.2,9.8l13.1,8.2l-2.3,8.7
	c-0.5,1.9-0.9,3.3-1.1,4.2c-0.2,0.9-0.4,1.9-0.5,3c-0.2,1.1-0.3,2.5-0.4,4c-0.1,1.6-0.2,3.1-0.2,4.6c0,8.7,1.3,16.9,4,24.8
	c2.6,7.9,6.6,14.6,11.9,20s11.6,9.5,19,12.2c7.4,2.7,15.1,4,23.3,4c5.7,0,11.4-0.7,16.9-2.2c5.5-1.5,10.5-3.7,15-6.9
	c4.5-3.1,8.4-7.1,11.6-11.8l19.5,12.9c-0.1-3.6-0.2-7-0.2-10.1C164.7,218.1,164.7,214.7,164.8,210.9z M117.7,147.7
	c3.4-0.1,6.6,2.7,6.6,6c0.1,3.2-2.9,6.1-6.4,6.2c-3.6,0.1-6.5-2.6-6.6-6C111.3,150.6,114.2,147.8,117.7,147.7z M81.1,150.7
	c3.3-0.1,6.6-0.1,9.9-0.1c0,0,0,0,0,0c3.4,0,6.8-0.1,10.2,0.1c0.7,0,1.4,0.8,2.1,1.2c-0.7,0.5-1.4,1.3-2,1.3
	c-6.7,0.1-13.4,0.1-20.1,0c-0.7,0-1.4-0.8-2.1-1.3C79.7,151.5,80.4,150.7,81.1,150.7z M64.2,160.7c0.7-0.5,1.4-1.3,2.1-1.3
	c8.1-0.1,16.3-0.1,24.4,0c0.7,0,1.5,1,2.2,1.5c-0.7,0.4-1.4,1.1-2.2,1.1c-4.1,0.1-8.1,0.1-12.2,0.1c0,0,0,0,0,0
	c-4.1,0-8.1,0.1-12.2-0.1C65.6,162,64.9,161.2,64.2,160.7z M69.3,170.3c0.7-0.4,1.4-1.3,2.1-1.3c5.7-0.1,11.4-0.1,17.1,0
	c0.7,0,1.3,0.8,2,1.3c-0.7,0.4-1.3,1.2-2,1.2c-2.7,0.1-5.5,0.1-8.2,0.1c-2.9,0-5.9,0.1-8.8-0.1C70.6,171.5,70,170.7,69.3,170.3z
	 M77.6,181.1c-0.8-0.1-1.5-0.9-2.3-1.3c0.7-0.4,1.4-1.2,2.1-1.2c3.7-0.1,7.4-0.1,11.1,0c0.7,0,1.3,0.9,2,1.3
	c-0.7,0.4-1.4,1.2-2.1,1.2c-1.7,0.2-3.4,0.1-5.1,0.1C81.4,181.1,79.5,181.3,77.6,181.1z M80.6,190.6c-0.6-0.1-1-0.8-1.5-1.3
	c0.5-0.4,1-1.2,1.5-1.2c2.4-0.1,4.7-0.1,7.1,0c0.5,0,1,0.8,1.5,1.2c-0.5,0.4-0.9,1.2-1.5,1.3c-1.1,0.2-2.3,0.1-3.4,0.1
	C83.1,190.7,81.8,190.8,80.6,190.6z M119.9,191.8c-3.6,3.7-7.5,7.2-11.4,10.8c-1.1,1-2.4,0.7-2.4-0.7c0-1.7,0.3-3.5,1.1-4.9
	c0.9-1.8,2.5-3.3,4.1-5.2c-2.3-1.1-4.3-2.1-6.4-3.1c1.9-3.1,3.6-6,5.6-9.3c3.4,3.2,6.6,6.1,9.6,9.3
	C120.7,189.1,120.6,191.1,119.9,191.8z M134.5,168.6c-4.5,3.5-9.2,6.8-13.8,10.3c-1.9,1.5-3.4,1.4-5.1-0.3
	c-3.8-3.5-7.6-6.9-11.5-10.3c-0.6-0.6-1.9-0.5-2.8-0.8c0.3,0.9,0.5,2,1.1,2.6c2,2.2,4.2,4.2,6.5,6.5c-6.3,10.6-12.8,21.3-19.3,32.2
	c-4-2.5-4.2-3.1-2.8-6.8c4.6-12.4,9.2-24.8,13.8-37.1c0.3-0.9,0.8-1.8,1.3-2.6c2.3-3.4,8.7-3.4,10.5,0.2c1.3,2.6,3.2,5,4.9,7.5
	c1.9,2.8,3.5,3.2,6.6,1.4c2.9-1.7,5.7-3.5,8.7-5c0.9-0.5,2.1-0.3,3.2-0.4C135.4,166.8,135.2,168,134.5,168.6z"/>
</svg>
